<svg id="visual" viewBox="0 0 300 600" width="300" height="600" xmlns="http://www.w3.org/2000/svg" xmlns:xlink="http://www.w3.org/1999/xlink" version="1.1"><rect x="0" y="0" width="300" height="600" fill="#140021"></rect><path d="M0 275L43 275L43 349L86 349L86 302L129 302L129 332L171 332L171 355L214 355L214 304L257 304L257 323L300 323L300 273L300 601L300 601L257 601L257 601L214 601L214 601L171 601L171 601L129 601L129 601L86 601L86 601L43 601L43 601L0 601Z" fill="#560090"></path><path d="M0 378L43 378L43 391L86 391L86 363L129 363L129 377L171 377L171 454L214 454L214 379L257 379L257 400L300 400L300 433L300 601L300 601L257 601L257 601L214 601L214 601L171 601L171 601L129 601L129 601L86 601L86 601L43 601L43 601L0 601Z" fill="#7700c6"></path><path d="M0 475L43 475L43 486L86 486L86 458L129 458L129 511L171 511L171 451L214 451L214 524L257 524L257 506L300 506L300 444L300 601L300 601L257 601L257 601L214 601L214 601L171 601L171 601L129 601L129 601L86 601L86 601L43 601L43 601L0 601Z" fill="#9900ff"></path></svg>